<?xml version="1.0" encoding="utf-8"?>
<svg viewBox="0 0 32 32" width="16px" height="16px" xmlns="http://www.w3.org/2000/svg">
  <path style="fill: rgb(216, 216, 216); stroke: rgb(0, 0, 0);"/>
  <path style="fill: rgb(216, 216, 216); stroke: rgb(0, 0, 0);" d="M 15.303 -4.879"/>
  <path style="fill: rgb(216, 216, 216); stroke: rgb(0, 0, 0); fill-opacity: 0; stroke-width: 2px; stroke-linecap: round;" d="M 2.704 29.365 C 4.769 25.653 3.173 18.541 10.85 10.28 C 17.914 2.679 25.583 3.718 31.515 1.621" transform="matrix(0, 1, -1, 0, 32.602499, -1.6165)"/>
  <path style="fill: rgb(216, 216, 216); stroke: rgb(0, 0, 0); fill-opacity: 0; stroke-width: 2px; stroke-linecap: round;" d="M 1.166 30.023 C 3.231 26.311 7.828 15.41 12.326 11.063 C 15.99 7.523 22.853 5.441 30.291 2.089" transform="matrix(0, 1, -1, 0, 31.7845, 0.3275)"/>
  <path style="fill: rgb(216, 216, 216); stroke: rgb(0, 0, 0); fill-opacity: 0; stroke-width: 2px; stroke-linecap: round;" d="M 2.641 29.521 C 4.706 25.809 9.116 20.371 13.614 16.024 C 17.278 12.484 23.701 6.386 29.507 3.41" transform="matrix(0, 1, -1, 0, 32.5395, 0.3915)"/>
  <path style="fill: rgb(216, 216, 216); stroke: rgb(0, 0, 0); fill-opacity: 0; stroke-width: 2px; stroke-linecap: round;" d="M 2.264 30.368 C 5.773 26.028 14.262 22.91 18.76 18.563 C 22.424 15.023 25.583 6.917 30.448 2.749" transform="matrix(0, 1, -1, 0, 32.9145, 0.2025)"/>
  <path style="fill: rgb(216, 216, 216); stroke: rgb(0, 0, 0); fill-opacity: 0; stroke-width: 2px; stroke-linecap: round;" d="M 1.019 31.175 C 5.469 28.593 16.099 25.785 20.277 21.129 C 26.326 14.388 25.404 8.54 29.202 2.866" transform="matrix(0, 1, -1, 0, 32.130999, 1.910001)"/>
</svg>