<?xml version="1.0" encoding="utf-8"?>
<svg viewBox="0 0 32 32" width="16px" height="16px" xmlns="http://www.w3.org/2000/svg">
  <path style="fill: rgb(216, 216, 216); stroke: rgb(0, 0, 0);"/>
  <path style="fill: rgb(216, 216, 216); stroke: rgb(0, 0, 0);" d="M 15.303 -4.879"/>
  <path style="fill: rgb(216, 216, 216); stroke: rgb(0, 0, 0);" transform="matrix(1, 0, 0, 1, 36.969702, 5.086625)"/>
  <path style="fill: rgb(216, 216, 216); stroke: rgb(0, 0, 0);" d="M 2.959 9.027 L 0.645 8.963 L 0.672 23.562 L 2.857 23.629 L 2.945 28.567 L 8.515 28.529 C 8.515 28.529 8.415 18.424 8.364 18.374 C 8.313 18.324 23.521 18.525 23.521 18.525 L 23.672 28.578 L 28.566 28.42 L 28.573 23.274 L 31.492 23.104 L 31.465 9.76 L 28.624 9.786 L 28.555 3.629 L 23.724 3.723 L 23.724 13.371 L 8.516 13.271 L 8.517 3.471 L 2.909 3.47 L 2.959 9.027 Z"/>
  <path style="fill: rgb(216, 216, 216); stroke: rgb(0, 0, 0);"/>
</svg>