<svg class="{{ with .class }}{{ . }} {{ end }}icon icon-tag" width="16" height="16" viewBox="0 0 32 32">

<!--  <path style="fill-opacity: 0; stroke: rgb(255, 255, 255" d=""/> -->
<!-- Encarnado: 226, 45, 48 -->

<circle style="fill: rgb(255, 255, 255);" cx="16.41" cy="9.758" r="9.662"/>
<circle style="fill: rgb(255, 255, 255);" cx="9.639" cy="22.109" r="9.662"/>
<circle style="fill: rgb(255, 255, 255);" cx="22.374" cy="22.003" r="9.662"/>

<path d="M 16.304 19.439 C 15.189 19.439 14.118 19.25 13.121 18.902 C 14.418 15.097 18.024 12.36 22.268 12.36 C 23.383 12.36 24.454 12.549 25.451 12.897 C 24.154 16.702 20.548 19.439 16.304 19.439 Z" style="fill: rgb(226, 45, 48);"/>
<path d="M 19.248 21.881 C 19.248 24.749 17.998 27.325 16.014 29.095 C 13.96 27.323 12.659 24.701 12.659 21.775 C 12.659 18.907 13.909 16.331 15.893 14.561 C 17.948 16.333 19.248 18.955 19.248 21.881 Z" style="fill: rgb(226, 45, 48);"/>
<path d="M 16.498 19.665 C 12.207 19.665 8.569 16.868 7.309 12.997 C 8.082 12.798 8.892 12.692 9.727 12.692 C 14.018 12.692 17.656 15.489 18.916 19.36 C 18.143 19.559 17.333 19.665 16.498 19.665 Z" style="fill: rgb(225, 45, 48);"/>

<path d="M 16.246 19.312 C 15.131 19.312 14.06 19.123 13.063 18.775 C 13.602 17.194 14.539 15.798 15.755 14.706 C 16.492 15.245 17.149 15.886 17.707 16.608 C 18.167 17.337 18.532 18.132 18.785 18.975 C 17.976 19.195 17.124 19.312 16.246 19.312 Z" style="fill: rgb(255, 255, 255);"/>


</svg>
